<svg width="48" height="48" viewBox="0 0 48 48" fill="none" xmlns="http://www.w3.org/2000/svg">
<path d="M0.0080999 47.9676C0.0080999 32.1188 0.0080999 16.278 0 0.429222C0 0.0809853 0.080999 0 0.429295 0C16.2808 0.00809853 32.1242 0.00809853 47.9757 0.00809853C47.9838 0.259153 48 0.510208 48 0.753163C48 9.47528 48 18.2055 48 26.9276C48 33.7142 48 40.5089 48 47.2954C48 47.9595 47.9838 47.9757 47.4168 47.9757C42.8242 47.9757 38.2396 47.9757 33.647 47.9838C33.1934 47.9838 33.0557 47.8137 33.0557 47.3764C33.0638 41.586 33.0638 35.7955 33.0557 30.0051C33.0557 29.5434 33.2015 29.3734 33.6713 29.3734C35.3723 29.3977 37.0732 29.3734 38.7742 29.3815C39.1306 29.3815 39.3007 29.2843 39.3493 28.8956C39.6085 26.8061 39.9001 24.7167 40.1674 22.6273C40.2565 21.9146 40.2484 21.9146 39.5113 21.9146C37.5592 21.9146 35.6072 21.9146 33.6551 21.9146C33.3068 21.9146 33.0476 21.8741 33.0476 21.4206C33.0638 19.809 33.0152 18.2055 33.0638 16.5939C33.1124 14.9985 34.2626 13.9295 35.8502 13.9133C37.1299 13.9052 38.4097 13.9133 39.6895 13.9133C40.3456 13.9133 40.3618 13.889 40.3699 13.2168C40.3699 11.4351 40.3699 9.66155 40.3699 7.87987C40.3699 7.23199 40.3375 7.19959 39.6652 7.19959C37.7779 7.19959 35.8907 7.19959 33.9953 7.19959C33.3554 7.19959 32.7155 7.24009 32.0918 7.38586C28.2443 8.2848 25.62 11.5485 25.5876 15.5006C25.5714 17.3875 25.5876 19.2745 25.5795 21.1696C25.5795 21.8903 25.5633 21.9146 24.8505 21.9146C23.2143 21.9146 21.57 21.9146 19.9339 21.9146C19.3507 21.9146 19.3102 21.947 19.3102 22.522C19.3102 24.6114 19.3183 26.709 19.3021 28.7984C19.294 29.2519 19.4641 29.3896 19.9015 29.3896C21.5214 29.3734 23.1495 29.3815 24.7695 29.3815C25.5714 29.3815 25.5714 29.3815 25.5714 30.1913C25.5714 35.8441 25.5714 41.4969 25.5714 47.1416C25.5714 47.9757 25.5714 47.9757 24.7533 47.9757C16.6939 47.9757 8.64259 47.9757 0.583193 47.9757C0.413095 47.9919 0.210597 47.9757 0.0080999 47.9676Z" fill="white"/>
</svg>
