<svg width="21" height="34" viewBox="0 0 21 34" fill="none" xmlns="http://www.w3.org/2000/svg">
<g clip-path="url(#clip0)">
<path d="M11.0754 0.0243371C12.9057 -0.102272 14.5426 0.373401 16.0922 1.23719C16.4401 1.43124 16.5168 1.66671 16.4472 2.03234C16.2102 3.27951 15.1016 4.09123 13.8386 3.92557C13.3704 3.86404 13.1204 3.50078 12.8409 3.18839C12.2253 2.49973 11.763 2.43465 11.0082 2.9825C10.4693 3.37298 9.95628 3.80014 9.41497 4.18707C8.98217 4.49709 8.89018 4.9207 9.19916 5.28514C10.0683 6.30985 10.0565 7.24937 9.22157 8.30602C8.91023 8.70005 8.63427 8.85151 8.18259 8.83968C7.64247 8.82548 7.09763 8.76632 6.6318 9.17336C6.08224 9.65258 5.76029 12.0499 6.1931 12.638C6.5233 13.0864 7.0363 13.1929 7.52572 13.2639C8.03282 13.3385 8.27812 13.5905 8.35713 14.0674C8.37718 14.1869 8.40195 14.3087 8.44912 14.4188C8.83475 15.3121 8.75692 16.0434 7.93494 16.7202C7.21556 17.3131 7.2474 17.7804 7.80875 18.5567C8.17552 19.0631 8.56705 19.553 8.93028 20.063C9.25105 20.5126 9.64258 20.5505 10.0919 20.3055C10.428 20.1221 10.7665 19.9399 11.0813 19.7234C11.434 19.482 11.7382 19.4914 12.0708 19.7624C12.2878 19.9399 12.5295 20.1209 12.7902 20.2026C13.4848 20.4191 13.6723 20.8936 13.598 21.5586C13.5709 21.7988 13.5862 22.0438 13.598 22.2863C13.6251 22.8401 13.881 23.1951 14.4589 23.2815C16.3706 23.5678 16.0368 23.4317 16.0569 25.2362C16.0722 26.6739 16.0628 26.6064 14.5686 26.5674C12.1286 26.5047 9.6874 26.5425 7.24622 26.5366C7.06461 26.5366 6.88181 26.5473 6.70256 26.5248C6.26032 26.4715 5.92539 26.1627 5.9761 25.7746C6.06337 25.0978 5.84402 24.4505 5.9195 23.7843C6.00441 23.0259 5.61523 22.4224 5.21073 21.8355C3.96302 20.0227 2.63629 18.2585 1.48293 16.3866C-0.030131 13.9396 -0.314345 11.2405 0.311869 8.44328C0.984077 5.4437 2.70469 3.17656 5.25201 1.54247C7.02923 0.401799 8.99632 -0.125938 11.0754 0.0243371Z" fill="#B8F1F4"/>
<path d="M20.9882 12.7356C21.1309 14.9353 19.1709 17.2592 16.4514 17.2509C13.9961 17.2426 11.9641 15.2027 11.9547 12.7155C11.9452 10.1904 13.9642 8.17289 16.4714 8.14804C19.1614 8.12201 21.1781 10.4885 20.9882 12.7356Z" fill="#B8F1F4"/>
<path d="M11.0337 29.7758C12.022 29.7758 13.009 29.7722 13.9973 29.7781C14.2839 29.7793 14.5834 29.8077 14.7084 30.126C14.8275 30.4278 14.6035 30.623 14.4266 30.81C13.5232 31.7613 12.6199 32.7127 11.7012 33.6486C11.2389 34.1184 10.8085 34.1125 10.3355 33.6605C9.41687 32.7825 8.57248 31.8264 7.60073 31.0005C7.35897 30.7946 7.12782 30.5106 7.25401 30.1544C7.38609 29.7805 7.74225 29.7793 8.07009 29.7781C9.05836 29.7758 10.0454 29.777 11.0337 29.777C11.0337 29.777 11.0337 29.777 11.0337 29.7758Z" fill="#B8F1F4"/>
<path d="M11.069 27.3714C12.1988 27.3726 13.3286 27.3714 14.4572 27.3726C14.5786 27.3726 14.6989 27.3714 14.8204 27.3773C15.3464 27.4022 15.8523 27.7666 15.8594 28.1228C15.8664 28.492 15.3169 28.944 14.8015 28.9451C12.3002 28.9522 9.79888 28.944 7.29756 28.9475C6.86122 28.9487 6.57229 28.6967 6.34822 28.3831C6.07344 27.9985 6.56521 27.3974 7.19614 27.3809C8.1844 27.3548 9.17267 27.3714 10.1609 27.3714C10.4628 27.3702 10.7659 27.3702 11.069 27.3714Z" fill="#B8F1F4"/>
</g>
<defs>
<clipPath id="clip0">
<rect width="21" height="34" fill="white"/>
</clipPath>
</defs>
</svg>
