<svg width="462" height="116" viewBox="0 0 462 116" fill="none" xmlns="http://www.w3.org/2000/svg">
<path d="M271.274 16.672C276.634 16.3011 281.429 17.6944 285.968 20.2194C286.984 20.7853 287.212 21.4748 287.008 22.5447C286.315 26.192 283.067 28.5649 279.369 28.0799C277.997 27.8992 277.266 26.8387 276.444 25.9257C274.64 23.9143 273.287 23.724 271.074 25.3266C269.498 26.4678 267.993 27.7185 266.407 28.8502C265.139 29.7585 264.869 30.9948 265.776 32.06C268.321 35.0558 268.287 37.7996 265.842 40.8906C264.931 42.0413 264.123 42.4836 262.799 42.4503C261.218 42.4075 259.622 42.2363 258.255 43.4251C256.646 44.8232 255.701 51.8324 256.973 53.5538C257.942 54.8663 259.442 55.1754 260.876 55.3846C262.362 55.6034 263.079 56.3357 263.312 57.7337C263.369 58.0809 263.44 58.4422 263.582 58.7609C264.712 61.3763 264.484 63.5114 262.077 65.4896C259.969 67.2205 260.064 68.59 261.707 70.8583C262.78 72.3419 263.929 73.7685 264.992 75.2616C265.932 76.5788 267.077 76.6882 268.397 75.9702C269.379 75.4328 270.372 74.9002 271.297 74.2678C272.328 73.564 273.22 73.5878 274.194 74.3819C274.83 74.9002 275.537 75.4328 276.302 75.6706C278.339 76.303 278.885 77.6916 278.666 79.6365C278.585 80.3355 278.628 81.0583 278.666 81.7668C278.747 83.3836 279.497 84.425 281.187 84.6771C286.79 85.514 285.812 85.1145 285.869 90.3929C285.916 94.5965 285.883 94.3968 281.51 94.2875C274.365 94.1068 267.214 94.2161 260.064 94.1971C259.532 94.1971 258.996 94.2256 258.469 94.1638C257.173 94.0069 256.195 93.1034 256.342 91.9716C256.598 89.9935 255.957 88.1009 256.176 86.1512C256.427 83.9305 255.283 82.171 254.101 80.4496C250.445 75.1475 246.556 69.9928 243.181 64.5195C238.756 57.3485 237.925 49.4595 239.757 41.2805C241.723 32.5118 246.765 25.8829 254.229 21.1039C259.423 17.7752 265.182 16.2297 271.274 16.672Z" fill="url(#paint0_linear)"/>
<path d="M300.307 53.8344C300.725 60.2683 294.985 67.0636 287.018 67.035C279.825 67.0113 273.876 61.0482 273.847 53.7726C273.819 46.3924 279.734 40.4911 287.075 40.4198C294.956 40.3437 300.862 47.2626 300.307 53.8344Z" fill="url(#paint1_linear)"/>
<path d="M271.155 103.651C274.047 103.651 276.943 103.641 279.834 103.655C280.675 103.66 281.548 103.741 281.918 104.673C282.265 105.557 281.615 106.128 281.092 106.675C278.448 109.457 275.803 112.239 273.111 114.973C271.758 116.347 270.495 116.328 269.113 115.011C266.421 112.443 263.948 109.652 261.104 107.236C260.396 106.632 259.717 105.805 260.088 104.763C260.477 103.67 261.517 103.665 262.476 103.665C265.367 103.66 268.264 103.665 271.155 103.665C271.155 103.655 271.155 103.655 271.155 103.651Z" fill="url(#paint2_linear)"/>
<path d="M271.255 96.6223C274.564 96.6223 277.873 96.6223 281.178 96.6271C281.534 96.6271 281.885 96.6223 282.241 96.6414C283.78 96.7127 285.266 97.7779 285.285 98.8193C285.304 99.8987 283.694 101.221 282.184 101.225C274.858 101.249 267.532 101.221 260.206 101.23C258.929 101.23 258.079 100.498 257.424 99.5801C256.622 98.4579 258.06 96.6984 259.907 96.6509C262.799 96.5748 265.695 96.6223 268.591 96.6223C269.484 96.6176 270.367 96.6176 271.255 96.6223Z" fill="url(#paint3_linear)"/>
<path d="M125.244 16.5055V66.8257L86.3161 16.5055H74.4845H74.437V66.8257L35.5093 16.5055H23.6776V89.2801H36.2357V37.5048C36.2404 37.5999 76.4026 89.2278 76.2886 89.3562L87.0425 89.2801V37.5048L127.11 89.2801H137.802V16.5055H125.244Z" fill="url(#paint4_linear)"/>
<path d="M309.47 21.0563H322.237V93.8309H309.47V21.0563Z" fill="url(#paint5_linear)"/>
<path d="M380.213 18.807C377.669 18.5693 374.996 18.0224 372.603 19.4537C371.582 20.0624 370.556 20.2526 369.407 20.2669C363.15 20.3192 356.892 20.4048 350.629 20.4999C349.272 20.5189 347.956 20.8233 346.627 21.1656C340.531 22.7349 336.566 27.357 332.075 31.223C331.799 31.4608 331.548 31.7556 331.709 32.1408C331.913 32.6211 332.379 32.6021 332.778 32.507C333.409 32.3595 334.017 32.1075 334.643 31.9506C337.677 31.2135 340.659 30.2625 343.85 30.329C347.192 30.3956 348.944 31.6938 349.343 34.5707V93.8309H362.11V46.4209C362.11 46.3733 362.11 46.3258 362.11 46.2782C362.11 46.2639 362.11 46.2497 362.11 46.2354V35.6407C362.186 35.0748 362.475 34.5042 362.732 34.0049C363.729 32.0742 363.928 31.6272 365.248 31.7271C367.166 31.8697 369.156 31.7794 370.998 32.5735C371.439 32.7637 371.971 32.8826 372.156 33.3296C372.845 35.0082 374.231 35.0272 375.703 34.9702C376.766 34.9274 377.83 34.9702 378.893 34.9607C381.006 34.9464 381.576 34.5422 381.671 32.4356C381.832 28.7741 381.851 25.103 381.889 21.4367C381.908 20.2193 381.386 18.9164 380.213 18.807Z" fill="url(#paint6_linear)"/>
<path d="M420.271 65.1376L391.414 21.0563H406.569L426.809 53.1829L447.362 21.0563H462L433.142 64.8238V93.8309H420.271V65.1376Z" fill="url(#paint7_linear)"/>
<path d="M150.289 53.0973V52.8881C150.289 42.4931 153.816 33.653 160.981 26.3775C168.245 18.9973 177.38 15.2549 188.386 15.2549C199.391 15.2549 208.521 18.8927 215.686 26.2728C222.746 33.4485 226.274 42.2838 226.274 52.6788V52.8881C226.274 63.2831 222.746 72.1231 215.581 79.3987C208.317 86.7789 199.182 90.5212 188.177 90.5212C177.171 90.5212 168.041 86.8835 160.877 79.4985C153.816 72.3323 150.289 63.4971 150.289 53.0973ZM212.88 53.0973V52.8881C212.88 45.7124 210.596 39.5828 205.924 34.5898C201.252 29.4969 195.337 27.0004 188.172 27.0004C181.007 27.0004 175.196 29.4969 170.524 34.4852C165.957 39.3736 163.673 45.5031 163.673 52.6788V52.8881C163.673 60.0638 165.957 66.1933 170.629 71.0817C175.301 76.1746 181.216 78.6711 188.381 78.6711C195.545 78.6711 201.357 76.1746 206.029 71.1863C210.596 66.3027 212.88 60.273 212.88 53.0973Z" fill="url(#paint8_linear)"/>
<path d="M10.7539 16.263L6.38112 0.114126L6.36688 0.0570632L6.35264 0C6.40961 0.114126 1.98461 16.1441 1.97986 16.263H0V89.0376H12.767V16.263H10.7539Z" fill="url(#paint9_linear)"/>
<path d="M188.286 66.374C195.83 66.374 201.945 60.2489 201.945 52.6931C201.945 45.1374 195.83 39.0122 188.286 39.0122C180.742 39.0122 174.626 45.1374 174.626 52.6931C174.626 60.2489 180.742 66.374 188.286 66.374Z" fill="url(#paint10_linear)"/>
<defs>
<linearGradient id="paint0_linear" x1="262.954" y1="-17.0648" x2="262.954" y2="53.3425" gradientUnits="userSpaceOnUse">
<stop stop-color="#91B7B6"/>
<stop offset="0.0522" stop-color="#9CBEBE"/>
<stop offset="0.2386" stop-color="#C0D6D5"/>
<stop offset="0.4272" stop-color="#DBE8E7"/>
<stop offset="0.6163" stop-color="#EFF5F5"/>
<stop offset="0.8067" stop-color="#FBFCFC"/>
<stop offset="1" stop-color="white"/>
</linearGradient>
<linearGradient id="paint1_linear" x1="287.097" y1="-17.0648" x2="287.097" y2="53.3425" gradientUnits="userSpaceOnUse">
<stop stop-color="#91B7B6"/>
<stop offset="0.0522" stop-color="#9CBEBE"/>
<stop offset="0.2386" stop-color="#C0D6D5"/>
<stop offset="0.4272" stop-color="#DBE8E7"/>
<stop offset="0.6163" stop-color="#EFF5F5"/>
<stop offset="0.8067" stop-color="#FBFCFC"/>
<stop offset="1" stop-color="white"/>
</linearGradient>
<linearGradient id="paint2_linear" x1="270.996" y1="-17.065" x2="270.996" y2="53.3424" gradientUnits="userSpaceOnUse">
<stop stop-color="#91B7B6"/>
<stop offset="0.0522" stop-color="#9CBEBE"/>
<stop offset="0.2386" stop-color="#C0D6D5"/>
<stop offset="0.4272" stop-color="#DBE8E7"/>
<stop offset="0.6163" stop-color="#EFF5F5"/>
<stop offset="0.8067" stop-color="#FBFCFC"/>
<stop offset="1" stop-color="white"/>
</linearGradient>
<linearGradient id="paint3_linear" x1="271.243" y1="-17.0646" x2="271.243" y2="53.3426" gradientUnits="userSpaceOnUse">
<stop stop-color="#91B7B6"/>
<stop offset="0.0522" stop-color="#9CBEBE"/>
<stop offset="0.2386" stop-color="#C0D6D5"/>
<stop offset="0.4272" stop-color="#DBE8E7"/>
<stop offset="0.6163" stop-color="#EFF5F5"/>
<stop offset="0.8067" stop-color="#FBFCFC"/>
<stop offset="1" stop-color="white"/>
</linearGradient>
<linearGradient id="paint4_linear" x1="80.7394" y1="-17.0648" x2="80.7394" y2="53.3424" gradientUnits="userSpaceOnUse">
<stop stop-color="#91B7B6"/>
<stop offset="0.0522" stop-color="#9CBEBE"/>
<stop offset="0.2386" stop-color="#C0D6D5"/>
<stop offset="0.4272" stop-color="#DBE8E7"/>
<stop offset="0.6163" stop-color="#EFF5F5"/>
<stop offset="0.8067" stop-color="#FBFCFC"/>
<stop offset="1" stop-color="white"/>
</linearGradient>
<linearGradient id="paint5_linear" x1="315.854" y1="-17.0649" x2="315.854" y2="53.3424" gradientUnits="userSpaceOnUse">
<stop stop-color="#91B7B6"/>
<stop offset="0.0522" stop-color="#9CBEBE"/>
<stop offset="0.2386" stop-color="#C0D6D5"/>
<stop offset="0.4272" stop-color="#DBE8E7"/>
<stop offset="0.6163" stop-color="#EFF5F5"/>
<stop offset="0.8067" stop-color="#FBFCFC"/>
<stop offset="1" stop-color="white"/>
</linearGradient>
<linearGradient id="paint6_linear" x1="356.78" y1="-17.0649" x2="356.78" y2="53.3424" gradientUnits="userSpaceOnUse">
<stop stop-color="#91B7B6"/>
<stop offset="0.0522" stop-color="#9CBEBE"/>
<stop offset="0.2386" stop-color="#C0D6D5"/>
<stop offset="0.4272" stop-color="#DBE8E7"/>
<stop offset="0.6163" stop-color="#EFF5F5"/>
<stop offset="0.8067" stop-color="#FBFCFC"/>
<stop offset="1" stop-color="white"/>
</linearGradient>
<linearGradient id="paint7_linear" x1="426.707" y1="-17.0649" x2="426.707" y2="53.3424" gradientUnits="userSpaceOnUse">
<stop stop-color="#91B7B6"/>
<stop offset="0.0522" stop-color="#9CBEBE"/>
<stop offset="0.2386" stop-color="#C0D6D5"/>
<stop offset="0.4272" stop-color="#DBE8E7"/>
<stop offset="0.6163" stop-color="#EFF5F5"/>
<stop offset="0.8067" stop-color="#FBFCFC"/>
<stop offset="1" stop-color="white"/>
</linearGradient>
<linearGradient id="paint8_linear" x1="188.279" y1="-17.0648" x2="188.279" y2="53.3424" gradientUnits="userSpaceOnUse">
<stop stop-color="#91B7B6"/>
<stop offset="0.0522" stop-color="#9CBEBE"/>
<stop offset="0.2386" stop-color="#C0D6D5"/>
<stop offset="0.4272" stop-color="#DBE8E7"/>
<stop offset="0.6163" stop-color="#EFF5F5"/>
<stop offset="0.8067" stop-color="#FBFCFC"/>
<stop offset="1" stop-color="white"/>
</linearGradient>
<linearGradient id="paint9_linear" x1="6.38383" y1="-17.0648" x2="6.38383" y2="53.3425" gradientUnits="userSpaceOnUse">
<stop stop-color="#91B7B6"/>
<stop offset="0.0522" stop-color="#9CBEBE"/>
<stop offset="0.2386" stop-color="#C0D6D5"/>
<stop offset="0.4272" stop-color="#DBE8E7"/>
<stop offset="0.6163" stop-color="#EFF5F5"/>
<stop offset="0.8067" stop-color="#FBFCFC"/>
<stop offset="1" stop-color="white"/>
</linearGradient>
<linearGradient id="paint10_linear" x1="188.287" y1="-17.0648" x2="188.287" y2="53.3424" gradientUnits="userSpaceOnUse">
<stop stop-color="#91B7B6"/>
<stop offset="0.0522" stop-color="#9CBEBE"/>
<stop offset="0.2386" stop-color="#C0D6D5"/>
<stop offset="0.4272" stop-color="#DBE8E7"/>
<stop offset="0.6163" stop-color="#EFF5F5"/>
<stop offset="0.8067" stop-color="#FBFCFC"/>
<stop offset="1" stop-color="white"/>
</linearGradient>
</defs>
</svg>
